<?xml version="1.0" encoding="utf-8"?>
<!-- Generator: Adobe Illustrator 22.1.0, SVG Export Plug-In . SVG Version: 6.00 Build 0)  -->
<svg version="1.1" id="Capa_1" xmlns="http://www.w3.org/2000/svg" xmlns:xlink="http://www.w3.org/1999/xlink" x="0px" y="0px"
	 viewBox="0 0 300 300" style="enable-background:new 0 0 300 300;" xml:space="preserve">
<style type="text/css">
	.st0{fill:#FFFFFF;}
	.st1{fill:none;stroke:#FFFFFF;stroke-width:7;stroke-miterlimit:10;}
	.st2{fill:none;stroke:#FFFFFF;stroke-width:3;stroke-miterlimit:10;}
</style>
<title>logo web</title>
<path class="st0" d="M49.6,243.7c1.3,2.3,1.9,4.9,2,7.6c0,0.5,0,1-0.1,1.5c-0.1,0.4-0.2,0.9-0.3,1.4c-0.9-0.2-1.9-0.2-2.9-0.2h-7
	c-1.5,0-2.9,0.1-4.4,0.3c-1.6,0.2-3.4,0.5-5.4,0.8c-2,0.3-4.3,0.7-6.9,1.3c-1.4-0.7-2.7-1.6-3.7-2.9c-1.3-1.6-2.5-3.3-3.5-5.1
	c0.5-1.3,1.2-3,2-5c0.8-2,1.7-4.4,2.8-7.2s2.3-6.1,3.6-10s2.7-8.2,4.2-13.2c1-3.3,1.8-6.2,2.5-8.7c0.7-2.5,1.3-4.9,1.9-7.3
	c0.6-2.3,1.1-4.8,1.7-7.4c0.5-2.6,1.1-5.5,1.8-8.9c2.1,0.4,4,1.4,5.6,2.7c1.8,1.6,3.4,3.5,4.6,5.7c-0.6,1.2-1.2,2.5-1.7,3.8
	c-0.7,1.8-1.5,3.9-2.5,6.4s-2,5.4-3.1,8.6s-2.3,6.6-3.5,10.3s-2.3,7-3.5,10.1s-2.1,6-3,8.6s-1.6,4.7-2.1,6.6
	c-0.4,1.3-0.7,2.7-0.8,4.1c0.9,0,1.6,0,2.3-0.1c0.7-0.1,1.5-0.2,2.2-0.3c0.8-0.1,1.6-0.3,2.5-0.6s1.9-0.5,3.2-0.9
	c1.1-0.3,2.1-0.6,3-0.8s1.8-0.4,2.7-0.6s1.8-0.3,2.7-0.4L49.6,243.7z"/>
<path class="st0" d="M84.8,212c0.6,0,1.3,0.1,1.9,0.3c0.7,0.2,1.4,0.5,2,0.8c0.5,0.3,1,0.6,1.5,1c0.3,0.2,0.5,0.6,0.6,1
	c-1.1,2.6-2.1,5.1-3,7.7s-1.7,5.1-2.3,7.4s-1.1,4.6-1.5,6.7c-0.3,1.8-0.5,3.6-0.5,5.4c0,1.4,0.1,2.9,0.5,4.3c0.2,1,0.8,1.8,1.6,2.4
	c-0.8,0.5-1.6,0.9-2.5,1.2c-0.9,0.3-1.8,0.4-2.7,0.5c-2.9,0-4.3-2.3-4.3-6.8c0-3.5,1-8.2,3.1-14.2c-1,2.7-2.3,5.3-3.7,7.9
	c-1.3,2.3-2.7,4.4-4.3,6.5c-1.3,1.7-2.7,3.2-4.4,4.6c-1.2,1-2.6,1.8-4.1,2.1c-2.1,0-3.9-1.2-4.8-3.1c-1.3-2.4-2-5.1-1.8-7.8
	c0-3.7,0.7-7.3,1.9-10.8c1.3-3.7,2.9-7.2,5-10.5c1.8-3,4-5.7,6.6-8.1c2.4-2.2,4.7-3.3,6.8-3.3c0.7,0.3,1.3,0.6,1.8,1.1
	c0.7,0.6,1.4,1.2,1.9,1.9c0.6,0.7,1.1,1.4,1.6,2.2c0.4,0.6,0.6,1.3,0.7,2c-2.5,0.5-4.8,1.8-6.7,3.6c-2.4,2.1-4.5,4.6-6.2,7.2
	c-1.9,2.8-3.4,5.9-4.6,9.1c-1.1,2.9-1.7,5.9-1.8,9c0,1.1,0.4,1.9,1.1,2.2c1.6-0.4,3.4-1.9,5.4-4.5c2.8-3.9,5.3-8,7.4-12.2
	c0.5-1.1,1.1-2.3,1.8-3.7s1.4-2.7,2.1-4.2s1.4-2.9,2-4.4S84.2,213.4,84.8,212z"/>
<path class="st0" d="M169.3,199.7c0,3.3-0.8,6.6-2.2,9.6c-1.5,3-3.5,5.7-6,8c-5.3,4.8-12.3,7.5-19.5,7.4c-1.1,0-2.2-0.2-3.2-0.6
	c-1-0.6-1.9-1.4-2.6-2.3c-2.7,6.6-4.9,12.7-6.6,18.3c-1.6,5.3-3,10.7-4,16.2c-1.9-0.5-3.6-1.5-5-2.9c-1.4-1.6-2.6-3.3-3.5-5.2
	c0.5-1.1,1.2-2.7,1.9-4.6s1.7-4.2,2.7-7s2.3-6.1,3.8-9.9s3.1-8.4,5-13.6c0.9-2.4,1.6-4.4,2.3-6.2s1.2-3.4,1.7-5s0.9-3.1,1.3-4.6
	s0.8-3.2,1.3-5c-2.4,0.9-4.8,1.9-7,3.2c-1.9,1.1-3.7,2.3-5.3,3.8c-0.6-0.5-1.1-1-1.5-1.6c-0.5-0.8-1-1.6-1.4-2.4
	c-0.4-0.9-0.8-1.8-1.1-2.7c-0.3-0.8-0.5-1.6-0.6-2.5c1.8-1.4,3.7-2.5,5.8-3.4c2.4-1.1,4.9-2,7.4-2.7c2.7-0.8,5.4-1.4,8.2-1.8
	c2.7-0.4,5.4-0.6,8.1-0.6c2.8,0,5.6,0.4,8.3,1.3c2.3,0.8,4.5,2.1,6.3,3.7c1.7,1.6,3.1,3.5,3.9,5.6
	C168.8,194.7,169.3,197.2,169.3,199.7z M155,188.7c-2.1,0-4.2,0.2-6.3,0.6l1,1.6c-0.7,1.1-1.4,2.3-2,3.6c-0.8,1.6-1.7,3.5-2.7,5.7
	c-1,2.2-2,4.7-3.2,7.4l-3.7,8.7c3.9,0,7.7-0.4,11.4-1.3c3.1-0.7,6.1-2,8.8-3.6c2.3-1.4,4.2-3.2,5.7-5.4c1.3-2,2.1-4.3,2.1-6.7
	c0.1-2.8-0.9-5.6-2.8-7.6C161.5,189.7,158.7,188.7,155,188.7L155,188.7z"/>
<path class="st0" d="M191.8,212c0.6,0,1.3,0.1,1.9,0.3c0.7,0.2,1.4,0.5,2,0.8c0.5,0.3,1,0.6,1.5,1c0.3,0.2,0.5,0.6,0.6,1
	c-1.1,2.6-2.1,5.1-3,7.7s-1.7,5.1-2.3,7.4s-1.1,4.6-1.5,6.7c-0.3,1.8-0.5,3.6-0.5,5.4c0,1.4,0.1,2.9,0.5,4.3c0.2,1,0.8,1.8,1.6,2.4
	c-0.8,0.5-1.6,1-2.5,1.2c-0.9,0.3-1.8,0.4-2.7,0.5c-2.9,0-4.4-2.3-4.4-6.8c0-3.5,1-8.2,3.1-14.2c-1,2.7-2.3,5.3-3.7,7.9
	c-1.3,2.3-2.7,4.4-4.3,6.5c-1.3,1.7-2.7,3.2-4.4,4.6c-1.2,1-2.6,1.8-4.1,2.1c-2.1,0-3.9-1.2-4.8-3.1c-1.3-2.4-2-5.1-1.9-7.8
	c0-3.7,0.7-7.3,1.9-10.8c1.3-3.7,2.9-7.2,5-10.5c1.8-3,4-5.7,6.6-8.1c2.4-2.2,4.6-3.3,6.9-3.3c0.7,0.3,1.3,0.6,1.8,1.1
	c1.4,1.2,2.6,2.6,3.5,4.1c0.4,0.6,0.6,1.3,0.7,2c-2.5,0.5-4.8,1.8-6.6,3.6c-2.4,2.1-4.5,4.6-6.2,7.2c-1.9,2.8-3.4,5.9-4.6,9.1
	c-1.1,2.9-1.7,5.9-1.8,9c0,1.1,0.4,1.9,1.1,2.2c1.6-0.4,3.4-1.9,5.4-4.5c2.8-3.9,5.3-8,7.4-12.3c0.5-1.1,1.1-2.3,1.8-3.7
	s1.4-2.7,2.1-4.2s1.4-2.9,2-4.4S191.2,213.4,191.8,212z"/>
<path class="st0" d="M201.8,243.1c0.2-3.8,0.7-7.6,1.7-11.3c1.1-4.8,2.7-10.5,4.8-16.9c3.3-10.3,6.5-18.8,9.4-25.7
	c2.3-5.6,5.2-11,8.6-16c0.8,0.2,1.6,0.5,2.4,0.9c0.9,0.5,1.9,1,2.8,1.6c0.9,0.5,1.7,1.1,2.5,1.8c0.5,0.4,1,0.9,1.4,1.5
	c-4.2,5.7-7.9,11.7-11,18.1c-3.5,7.2-6.4,14.6-8.7,22.2c-2,6.4-3.8,12.9-5.2,19.4c-1.1,4.7-1.7,9.5-1.8,14.4v1.9
	c0,0.2,0,0.5,0.1,0.7c-0.7-0.1-1.3-0.3-1.9-0.6c-0.5-0.2-0.8-0.6-1-1.1c-0.2-0.5-0.5-0.9-0.9-1.3c-0.4-0.5-0.8-0.9-1.3-1.3
	c-0.5-0.4-0.9-1.3-1.2-2.9C202,246.6,201.8,244.8,201.8,243.1z"/>
<path class="st0" d="M225.6,213.9c-0.4-0.7-0.6-1.5-0.7-2.3c-0.2-1-0.3-2-0.3-3.1c1.3,0.2,2.7,0.4,4,0.4h3.5
	c0.8-1.8,1.7-3.6,2.6-5.4c0.9-1.8,1.9-3.4,2.7-4.9c0.8-1.3,1.6-2.5,2.5-3.7c0.5-0.7,1.1-1.4,1.8-2c0.7,0,1.4,0.1,2.1,0.3
	c0.9,0.2,1.7,0.5,2.5,0.8c0.9,0.3,1.6,0.7,2.3,1.1c0.6,0.3,1.1,0.6,1.4,1.1c-1.6,2.3-3,4.4-4.1,6.4s-2.4,4.2-3.8,6.8h3.3
	c1.1,0,2.2-0.1,3.3-0.3c0.3,0.3,0.5,0.7,0.6,1.1c0.2,0.5,0.2,0.9,0.2,1.4c-3,1.2-6.3,1.8-9.6,1.7c-1.3,2.9-2.5,5.8-3.6,8.7
	s-1.9,5.7-2.6,8.4c-0.7,2.7-1.3,5.2-1.7,7.6c-0.4,2.1-0.6,4.3-0.6,6.4c0,2.7,0.9,4.2,2.7,4.5c1.6-0.2,3.1-0.7,4.6-1.4
	c1.4-0.6,2.7-1.5,3.9-2.6c0.3,0.4,0.5,0.9,0.6,1.4c-0.5,0.7-1,1.3-1.6,1.9c-0.8,0.8-1.7,1.5-2.5,2.1c-0.8,0.6-1.7,1.2-2.7,1.8
	c-0.6,0.4-1.3,0.6-1.9,0.8c-1.4,0-2.7-0.3-4-0.9c-1.3-0.6-2.6-1.4-3.7-2.3c-1.1-0.9-2-1.9-2.7-3.1c-0.6-1-1-2.1-1-3.3
	c0-1.9,0.2-3.7,0.5-5.5c0.4-2.2,0.9-4.6,1.5-7.3s1.4-5.4,2.3-8.2s1.8-5.7,2.8-8.5L225.6,213.9z"/>
<path class="st0" d="M277,212c0.6,0,1.3,0.1,1.9,0.3c0.7,0.2,1.4,0.5,2,0.8c0.5,0.3,1,0.6,1.5,1c0.3,0.2,0.5,0.6,0.6,1
	c-1.1,2.5-2.1,5.1-3,7.7s-1.7,5.1-2.3,7.4c-0.6,2.4-1.1,4.6-1.5,6.7c-0.3,1.8-0.5,3.6-0.5,5.4c0,1.4,0.1,2.9,0.5,4.3
	c0.2,1,0.8,1.8,1.6,2.4c-0.8,0.5-1.6,0.9-2.5,1.2c-0.9,0.3-1.8,0.4-2.7,0.5c-2.9,0-4.4-2.3-4.4-6.8c0-3.5,1-8.2,3.1-14.2
	c-1,2.7-2.3,5.3-3.7,7.9c-1.3,2.3-2.7,4.4-4.3,6.5c-1.3,1.7-2.8,3.2-4.4,4.6c-1.2,1-2.6,1.8-4.1,2.1c-2.1,0-3.9-1.2-4.8-3.1
	c-1.3-2.4-2-5.1-1.9-7.8c0.1-3.7,0.7-7.3,1.9-10.8c1.3-3.7,2.9-7.2,5-10.6c1.8-3,4-5.7,6.6-8.1c2.4-2.2,4.6-3.3,6.9-3.3
	c0.7,0.3,1.3,0.6,1.8,1.1c0.7,0.6,1.4,1.2,1.9,1.9c0.6,0.7,1.1,1.4,1.6,2.2c0.4,0.6,0.6,1.3,0.7,2c-2.5,0.5-4.8,1.8-6.7,3.6
	c-2.4,2.1-4.5,4.6-6.2,7.2c-1.9,2.8-3.4,5.9-4.6,9.1c-1.1,2.9-1.7,5.9-1.8,9c0,1.1,0.4,1.9,1.1,2.2c1.6-0.4,3.4-1.9,5.4-4.5
	c2.8-3.9,5.3-8,7.4-12.3c0.5-1.1,1.1-2.3,1.8-3.7s1.4-2.7,2-4.2s1.4-2.9,2.1-4.4S276.5,213.4,277,212z"/>
<path class="st1" d="M198.7,130.2c-9.2,27.2-36,41.6-59.8,32.2S103,123.2,112.2,96s50.2-83.8,74-74.4S207.8,103,198.7,130.2"/>
<path class="st2" d="M162.3,93.2c9.8,2.4,16,13.4,13.8,24.4s-11.8,18.1-21.6,15.7s-16-13.4-13.8-24.4S152.5,90.8,162.3,93.2"/>
<path class="st0" d="M158.3,96.5c0,0,13.7-0.7,14.8,14.6C173.2,111.2,169.7,98.8,158.3,96.5"/>
<path class="st0" d="M62,273.5l1.5-10.3h3.1v14.5h-2.1v-10.4L63,277.7h-2.1l-1.7-10.2v10.3h-2v-14.5h3.2L62,273.5z"/>
<path class="st0" d="M77.5,277.8h-2.3l-0.4-2.6H72l-0.4,2.6h-2.1l2.3-14.5h3.3L77.5,277.8z M72.3,273.2h2.2l-1.1-7.3L72.3,273.2z"/>
<path class="st0" d="M85.1,277.8c-0.2-0.6-0.3-1.2-0.2-1.8v-2.3c0-1.4-0.4-1.8-1.5-1.8h-0.8v5.9h-2.3v-14.5h3.4
	c2.3,0,3.3,1.1,3.3,3.3v1.1c0,1.5-0.5,2.5-1.5,3c1.1,0.5,1.5,1.6,1.5,3.1v2.2c0,0.6,0,1.2,0.2,1.8H85.1z M82.7,265.3v4.5h0.9
	c0.8,0,1.4-0.4,1.4-1.5v-1.4c0-1-0.3-1.5-1.2-1.5L82.7,265.3z"/>
<path class="st0" d="M93.5,272l-0.7,1.3v4.5h-2.3v-14.5h2.3v6.3l3-6.3H98l-3.2,6.5l3.2,8h-2.3L93.5,272z"/>
<path class="st0" d="M103.2,269.4h3.1v2.1h-3.1v4.3h3.9v2.1h-6.2v-14.5h6.2v2.1h-3.9L103.2,269.4z"/>
<path class="st0" d="M109.7,263.3h7v2.1h-2.4v12.4H112v-12.4h-2.4L109.7,263.3z"/>
<path class="st0" d="M119.5,263.3h2.3v14.5h-2.3V263.3z"/>
<path class="st0" d="M127.3,267.3v10.5h-2v-14.5h2.8l2.3,8.7v-8.7h2v14.5h-2.3L127.3,267.3z"/>
<path class="st0" d="M139.4,269.7h3.2v4.6c0,2.3-1.1,3.6-3.4,3.6s-3.4-1.3-3.4-3.6v-7.5c0-2.3,1.1-3.6,3.4-3.6s3.4,1.3,3.4,3.6v1.4
	h-2.1v-1.6c0-1-0.5-1.4-1.2-1.4s-1.2,0.4-1.2,1.4v7.8c0,1,0.5,1.4,1.2,1.4s1.2-0.4,1.2-1.4v-2.6h-1L139.4,269.7z"/>
<path class="st0" d="M150.5,272.9l-2.9-9.7h2.4l1.7,6.6l1.7-6.6h2.2l-2.9,9.7v4.8h-2.3L150.5,272.9z"/>
<path class="st0" d="M167.6,266.8v1.9c0,2.3-1.1,3.6-3.4,3.6h-1.1v5.5h-2.3v-14.5h3.3C166.5,263.3,167.6,264.5,167.6,266.8z
	 M163.2,265.3v4.9h1.1c0.7,0,1.1-0.3,1.1-1.4v-2.2c0-1-0.4-1.4-1.1-1.4H163.2z"/>
<path class="st0" d="M172.7,263.3v11.2c0,1,0.5,1.4,1.2,1.4s1.2-0.4,1.2-1.4v-11.2h2.1v11c0,2.3-1.1,3.6-3.4,3.6s-3.4-1.3-3.4-3.6
	v-11H172.7z"/>
<path class="st0" d="M187.4,266.5v0.5c0,1.5-0.4,2.5-1.5,2.9c1.2,0.5,1.7,1.6,1.7,3.1v1.2c0,2.2-1.2,3.4-3.4,3.4h-3.6v-14.5h3.4
	C186.4,263.3,187.4,264.3,187.4,266.5z M182.9,265.3v3.8h0.9c0.8,0,1.4-0.4,1.4-1.5v-0.8c0-1-0.4-1.5-1.1-1.5H182.9z M182.9,271.2
	v4.5h1.3c0.8,0,1.2-0.4,1.2-1.4V273c0-1.4-0.4-1.8-1.5-1.8H182.9z"/>
<path class="st0" d="M190.8,263.3h2.2v12.4h3.7v2.1h-6L190.8,263.3z"/>
<path class="st0" d="M199.7,263.3h2.3v14.5h-2.3V263.3z"/>
<path class="st0" d="M212,272.3v1.9c0,2.3-1.2,3.6-3.4,3.6s-3.4-1.3-3.4-3.6v-7.5c0-2.3,1.1-3.6,3.4-3.6s3.4,1.3,3.4,3.6v1.4h-2.1
	v-1.6c0-1-0.4-1.4-1.2-1.4s-1.2,0.4-1.2,1.4v7.8c0,1,0.5,1.4,1.2,1.4s1.2-0.4,1.2-1.4v-2H212z"/>
<path class="st0" d="M215.2,263.3h2.3v14.5h-2.3V263.3z"/>
<path class="st0" d="M221,263.3h3.6c2.3,0,3.4,1.3,3.4,3.6v7.3c0,2.3-1.1,3.6-3.4,3.6H221V263.3z M223.3,265.3v10.4h1.3
	c0.7,0,1.1-0.4,1.1-1.4v-7.5c0-1-0.4-1.4-1.1-1.4L223.3,265.3z"/>
<path class="st0" d="M238.6,277.8h-2.3l-0.4-2.6h-2.8l-0.4,2.6h-2.1l2.3-14.5h3.3L238.6,277.8z M233.4,273.2h2.2l-1.1-7.3
	L233.4,273.2z"/>
<path class="st0" d="M241.5,263.3h3.5c2.3,0,3.4,1.3,3.4,3.6v7.3c0,2.3-1.1,3.6-3.4,3.6h-3.6L241.5,263.3z M243.8,265.3v10.4h1.3
	c0.7,0,1.1-0.4,1.1-1.4v-7.5c0-1-0.4-1.4-1.1-1.4L243.8,265.3z"/>
</svg>
