<?xml version="1.0" encoding="utf-8"?>
<!-- Generator: Adobe Illustrator 24.1.1, SVG Export Plug-In . SVG Version: 6.00 Build 0)  -->
<svg version="1.1" id="Capa_1" xmlns="http://www.w3.org/2000/svg" xmlns:xlink="http://www.w3.org/1999/xlink" x="0px" y="0px"
	 viewBox="0 0 300 300" style="enable-background:new 0 0 300 300;" xml:space="preserve">
<style type="text/css">
	.st0{fill:#FFFFFF;}
	.st1{fill:none;stroke:#FFFFFF;stroke-width:7;stroke-miterlimit:10;}
	.st2{fill:none;stroke:#FFFFFF;stroke-width:3;stroke-miterlimit:10;}
</style>
<g>
	<path class="st0" d="M59.1,237.7c1.2,2.6,1.9,5,1.9,7.4c0,0.5,0,1-0.1,1.5c-0.1,0.4-0.2,0.9-0.3,1.4c-0.9-0.2-1.7-0.2-2.7-0.2
		c-0.9,0-1.9,0-2.9,0c-1.2,0-2.4,0-3.6,0c-1.2,0-2.6,0.1-4.1,0.3c-1.5,0.2-3.2,0.4-5,0.8c-1.9,0.3-4,0.7-6.4,1.2
		c-1.2-0.5-2.3-1.4-3.4-2.8c-1.2-1.4-2.2-3.1-3.2-5.1c0.5-1.3,1.1-2.9,1.9-4.9c0.7-1.9,1.6-4.3,2.6-7.1c1-2.8,2.1-6,3.3-9.8
		c1.2-3.7,2.5-8.1,3.9-13c0.9-3.2,1.7-6.1,2.3-8.5c0.6-2.4,1.2-4.8,1.8-7.1c0.5-2.3,1-4.7,1.5-7.2c0.5-2.5,1-5.4,1.6-8.7
		c2,0.5,3.7,1.4,5.2,2.6c1.5,1.3,2.9,3.1,4.2,5.5c-0.4,0.8-0.9,2-1.6,3.8c-0.7,1.7-1.4,3.8-2.3,6.3c-0.9,2.5-1.8,5.3-2.9,8.4
		c-1.1,3.1-2.2,6.5-3.3,10.1c-1.1,3.5-2.2,6.8-3.2,9.9c-1,3.1-2,5.9-2.8,8.4c-0.8,2.5-1.5,4.7-2,6.4c-0.5,1.8-0.8,3.1-0.8,4
		c0.8,0,1.5,0,2.2-0.1c0.6-0.1,1.3-0.2,2-0.3c0.7-0.1,1.5-0.3,2.3-0.5c0.8-0.2,1.8-0.5,3-0.9c1-0.3,1.9-0.6,2.8-0.8
		c0.8-0.2,1.7-0.4,2.5-0.5c0.8-0.1,1.7-0.3,2.5-0.4C57.1,237.9,58,237.8,59.1,237.7z"/>
	<path class="st0" d="M91.9,206.6c0.5,0,1.1,0.1,1.8,0.3c0.7,0.2,1.3,0.5,1.8,0.8c0.5,0.3,1,0.7,1.4,1c0.4,0.4,0.6,0.7,0.6,1
		c-1,2.5-1.9,5-2.8,7.6c-0.9,2.5-1.6,5-2.2,7.3c-0.6,2.3-1.1,4.5-1.4,6.5c-0.3,2-0.5,3.8-0.5,5.3c0,1.7,0.1,3.1,0.5,4.2
		c0.3,1.1,0.8,1.9,1.5,2.4c-0.6,0.5-1.4,0.9-2.3,1.2c-1,0.3-1.8,0.4-2.5,0.4c-2.7,0-4-2.2-4-6.6c0-3.4,0.9-8.1,2.8-14
		c-1,2.7-2.1,5.3-3.4,7.7c-1.3,2.4-2.6,4.5-4,6.4c-1.4,1.8-2.7,3.3-4.1,4.5c-1.4,1.2-2.6,1.9-3.8,2.1c-1.9,0-3.4-1-4.5-3
		c-1.2-2-1.7-4.6-1.7-7.7c0-3.4,0.6-6.9,1.8-10.6c1.2-3.7,2.7-7.2,4.6-10.4c1.9-3.2,3.9-5.8,6.1-8c2.2-2.1,4.3-3.2,6.4-3.2
		c0.5,0.2,1.1,0.5,1.7,1.1c0.6,0.5,1.2,1.2,1.8,1.9c0.6,0.7,1.1,1.4,1.5,2.2c0.4,0.7,0.6,1.4,0.7,1.9c-2,0.4-4.1,1.5-6.2,3.5
		c-2.1,2-4,4.3-5.8,7.1c-1.7,2.8-3.1,5.7-4.2,8.9c-1.1,3.2-1.6,6.1-1.6,8.9c0,1.1,0.3,1.8,1,2.1c1.4-0.4,3.1-1.8,5-4.4
		c1.9-2.6,4.2-6.6,6.9-12.1c0.5-1.1,1.1-2.3,1.7-3.6c0.6-1.3,1.3-2.7,1.9-4.1c0.6-1.4,1.3-2.9,1.9-4.3
		C90.8,209.3,91.4,207.9,91.9,206.6z"/>
	<path class="st0" d="M170.5,194.5c0,3.3-0.7,6.4-2.1,9.4c-1.4,3-3.2,5.6-5.5,7.8c-2.3,2.2-5,4-8.2,5.3c-3.1,1.3-6.4,2-9.9,2
		c-1.3,0-2.2-0.2-3-0.6c-0.7-0.4-1.5-1.1-2.4-2.3c-2.5,6.5-4.5,12.5-6.1,18c-1.6,5.5-2.8,10.8-3.7,15.9c-1.9-0.5-3.4-1.5-4.6-2.8
		c-1.2-1.3-2.3-3-3.3-5.1c0.5-1.1,1.1-2.6,1.8-4.5c0.7-1.9,1.5-4.1,2.5-6.9c1-2.7,2.2-6,3.5-9.8c1.3-3.8,2.9-8.2,4.7-13.3
		c0.8-2.3,1.5-4.4,2.1-6.1c0.6-1.7,1.1-3.4,1.6-4.9c0.5-1.5,0.9-3,1.2-4.5c0.4-1.5,0.8-3.1,1.2-4.9c-2.4,0.9-4.5,1.9-6.5,3.1
		c-2,1.2-3.6,2.5-4.9,3.8c-0.4-0.4-0.9-0.9-1.4-1.6c-0.5-0.7-0.9-1.5-1.3-2.4c-0.4-0.9-0.7-1.7-1-2.6c-0.3-0.9-0.5-1.7-0.5-2.4
		c1.4-1.2,3.2-2.3,5.4-3.3c2.1-1,4.4-1.9,6.9-2.6c2.4-0.7,5-1.3,7.6-1.7c2.6-0.4,5.1-0.6,7.5-0.6c2.8,0,5.4,0.4,7.7,1.3
		c2.3,0.9,4.2,2.1,5.8,3.6c1.6,1.6,2.8,3.4,3.7,5.6C170.1,189.4,170.5,191.8,170.5,194.5z M157.2,183.7c-1.9,0-3.9,0.2-5.8,0.5
		l0.9,1.6c-0.5,0.8-1.1,1.9-1.9,3.5c-0.8,1.6-1.6,3.4-2.5,5.6c-0.9,2.2-1.9,4.6-3,7.3c-1.1,2.7-2.2,5.5-3.4,8.5
		c3.9,0,7.4-0.4,10.6-1.3c3.2-0.9,5.9-2.1,8.2-3.6c2.3-1.5,4-3.3,5.3-5.3c1.3-2,1.9-4.2,1.9-6.5c0-3.1-0.9-5.6-2.6-7.5
		C163.2,184.6,160.6,183.7,157.2,183.7z"/>
	<path class="st0" d="M191.4,206.6c0.5,0,1.1,0.1,1.8,0.3c0.7,0.2,1.3,0.5,1.8,0.8c0.5,0.3,1,0.7,1.4,1c0.4,0.4,0.6,0.7,0.6,1
		c-1,2.5-1.9,5-2.8,7.6c-0.9,2.5-1.6,5-2.2,7.3c-0.6,2.3-1.1,4.5-1.4,6.5c-0.3,2-0.5,3.8-0.5,5.3c0,1.7,0.1,3.1,0.5,4.2
		c0.3,1.1,0.8,1.9,1.5,2.4c-0.6,0.5-1.4,0.9-2.3,1.2c-1,0.3-1.8,0.4-2.5,0.4c-2.7,0-4-2.2-4-6.6c0-3.4,0.9-8.1,2.8-14
		c-1,2.7-2.1,5.3-3.4,7.7c-1.3,2.4-2.6,4.5-4,6.4c-1.3,1.8-2.7,3.3-4.1,4.5c-1.4,1.2-2.6,1.9-3.8,2.1c-1.9,0-3.3-1-4.5-3
		c-1.2-2-1.7-4.6-1.7-7.7c0-3.4,0.6-6.9,1.8-10.6c1.2-3.7,2.7-7.2,4.6-10.4s3.9-5.8,6.1-8s4.3-3.2,6.4-3.2c0.5,0.2,1.1,0.5,1.7,1.1
		s1.2,1.2,1.8,1.9c0.6,0.7,1.1,1.4,1.5,2.2c0.4,0.7,0.6,1.4,0.7,1.9c-2,0.4-4.1,1.5-6.2,3.5c-2.1,2-4,4.3-5.8,7.1
		c-1.7,2.8-3.1,5.7-4.2,8.9c-1.1,3.2-1.6,6.1-1.6,8.9c0,1.1,0.3,1.8,1,2.1c1.4-0.4,3.1-1.8,5-4.4c1.9-2.6,4.2-6.6,6.9-12.1
		c0.5-1.1,1.1-2.3,1.7-3.6c0.6-1.3,1.3-2.7,1.9-4.1c0.6-1.4,1.3-2.9,1.9-4.3C190.3,209.3,190.9,207.9,191.4,206.6z"/>
	<path class="st0" d="M200.7,237c0-2.6,0.5-6.3,1.6-11.1c1-4.8,2.5-10.3,4.4-16.6c3.1-10.1,6-18.5,8.7-25.2c2.7-6.7,5.4-12,8-15.7
		c0.6,0.1,1.3,0.4,2.2,0.9c0.9,0.5,1.7,1,2.6,1.6c0.8,0.6,1.6,1.2,2.3,1.7c0.7,0.6,1.1,1.1,1.3,1.4c-3.9,5.5-7.3,11.4-10.3,17.7
		c-3,6.3-5.7,13.6-8.1,21.8c-2.1,7.1-3.7,13.4-4.8,19c-1.1,5.6-1.6,10.4-1.6,14.1c0,1,0,1.6,0,1.9c0,0.2,0,0.5,0.1,0.7
		c-0.7-0.1-1.3-0.3-1.8-0.6c-0.5-0.3-0.8-0.7-1-1.1c-0.1-0.3-0.4-0.7-0.8-1.3c-0.4-0.6-0.9-1-1.2-1.3c-0.5-0.4-0.8-1.3-1.1-2.8
		C200.9,240.7,200.7,238.9,200.7,237z"/>
	<path class="st0" d="M222.9,208.4c-0.3-0.4-0.5-1.1-0.7-2.3c-0.2-1.2-0.3-2.2-0.3-3c1.3,0.2,2.5,0.4,3.8,0.4s2.3,0,3.3,0
		c0.8-1.8,1.6-3.5,2.4-5.3c0.9-1.7,1.7-3.3,2.5-4.8c0.8-1.4,1.6-2.7,2.3-3.7c0.7-1,1.3-1.7,1.7-1.9c0.5,0,1.1,0.1,1.9,0.3
		c0.8,0.2,1.6,0.5,2.4,0.8c0.8,0.3,1.5,0.7,2.2,1c0.6,0.4,1.1,0.7,1.3,1.1c-1.5,2.3-2.8,4.3-3.9,6.3c-1.1,1.9-2.2,4.1-3.5,6.6
		c1,0,2,0,3,0c1,0,2.1-0.1,3.1-0.3c0.3,0.3,0.5,0.7,0.6,1.1c0.2,0.4,0.2,0.9,0.2,1.4c-2.5,1.1-5.4,1.7-8.9,1.7
		c-1.3,2.9-2.4,5.7-3.3,8.6c-1,2.8-1.8,5.6-2.5,8.2c-0.7,2.6-1.2,5.1-1.6,7.5s-0.6,4.4-0.6,6.3c0,2.6,0.8,4.1,2.5,4.4
		c1.5-0.2,2.9-0.7,4.3-1.3c1.3-0.7,2.5-1.5,3.6-2.5c0.3,0.5,0.5,1,0.5,1.3c-0.3,0.5-0.8,1.2-1.5,1.9c-0.7,0.7-1.5,1.4-2.4,2.1
		c-0.9,0.7-1.7,1.3-2.5,1.7c-0.8,0.5-1.4,0.7-1.8,0.8c-1.3,0-2.5-0.3-3.7-0.9c-1.3-0.6-2.4-1.3-3.4-2.2c-1-0.9-1.9-1.9-2.5-3
		c-0.7-1.1-1-2.2-1-3.3c0-1.4,0.2-3.2,0.5-5.4s0.8-4.6,1.4-7.1c0.6-2.6,1.3-5.3,2.1-8.1c0.8-2.8,1.7-5.6,2.6-8.3H222.9z"/>
	<path class="st0" d="M270.8,206.6c0.5,0,1.1,0.1,1.8,0.3c0.7,0.2,1.3,0.5,1.8,0.8c0.5,0.3,1,0.7,1.4,1c0.4,0.4,0.6,0.7,0.6,1
		c-1,2.5-1.9,5-2.8,7.6c-0.9,2.5-1.6,5-2.2,7.3c-0.6,2.3-1.1,4.5-1.4,6.5c-0.3,2-0.5,3.8-0.5,5.3c0,1.7,0.1,3.1,0.5,4.2
		c0.3,1.1,0.8,1.9,1.5,2.4c-0.6,0.5-1.4,0.9-2.3,1.2c-1,0.3-1.8,0.4-2.5,0.4c-2.7,0-4-2.2-4-6.6c0-3.4,0.9-8.1,2.8-14
		c-1,2.7-2.1,5.3-3.4,7.7c-1.3,2.4-2.6,4.5-4,6.4c-1.3,1.8-2.7,3.3-4.1,4.5c-1.4,1.2-2.6,1.9-3.8,2.1c-1.9,0-3.3-1-4.5-3
		c-1.2-2-1.7-4.6-1.7-7.7c0-3.4,0.6-6.9,1.8-10.6c1.2-3.7,2.7-7.2,4.6-10.4s3.9-5.8,6.1-8s4.3-3.2,6.4-3.2c0.5,0.2,1.1,0.5,1.7,1.1
		s1.2,1.2,1.8,1.9c0.6,0.7,1.1,1.4,1.5,2.2c0.4,0.7,0.6,1.4,0.7,1.9c-2,0.4-4.1,1.5-6.2,3.5c-2.1,2-4,4.3-5.8,7.1
		c-1.7,2.8-3.1,5.7-4.2,8.9c-1.1,3.2-1.6,6.1-1.6,8.9c0,1.1,0.3,1.8,1,2.1c1.4-0.4,3.1-1.8,5-4.4c1.9-2.6,4.2-6.6,6.9-12.1
		c0.5-1.1,1.1-2.3,1.7-3.6c0.6-1.3,1.3-2.7,1.9-4.1c0.6-1.4,1.3-2.9,1.9-4.3C269.6,209.3,270.2,207.9,270.8,206.6z"/>
</g>
<g>
	<path class="st1" d="M188.6,124.3c-8.5,26.7-33.5,40.9-55.7,31.6c-22.2-9.3-33.3-38.5-24.7-65.2c8.5-26.7,46.7-82.3,68.9-73
		C199.3,27,197.2,97.6,188.6,124.3"/>
	<path class="st2" d="M154.8,88c9.1,2.4,14.9,13.1,12.9,24c-2,10.9-11,17.8-20.1,15.4c-9.1-2.4-14.9-13.1-12.9-24
		C136.7,92.5,145.7,85.6,154.8,88"/>
	<path class="st0" d="M151.1,91.2c0,0,12.8-0.7,13.8,14.3C164.9,105.6,161.6,93.5,151.1,91.2"/>
</g>
<g>
	<g>
		<path class="st0" d="M13.5,277.5l0.3-16.5h3.7l1.7,9.6l1.8-9.6h3.5l0.3,16.5h-2.4l-0.3-11l-1.8,11h-2.2l-1.9-11.1l-0.2,11.1H13.5z
			"/>
		<path class="st0" d="M29.9,277.5l2.9-16.5h3.9l2.9,16.5h-3.2L36,274h-2.3l-0.5,3.5H29.9z M34,271.8h1.6l-0.8-6.4L34,271.8z"/>
		<path class="st0" d="M44.9,277.5V261h4.3c1,0,2,0.1,2.7,0.4c0.8,0.2,1.4,0.7,1.8,1.3c0.4,0.6,0.6,1.5,0.6,2.7
			c0,0.7-0.1,1.3-0.2,1.8c-0.1,0.5-0.3,1-0.6,1.4c-0.3,0.4-0.7,0.7-1.2,1l2.1,8H51l-1.7-7.4h-1v7.4H44.9z M48.3,268h1
			c0.5,0,0.9-0.1,1.1-0.3c0.3-0.2,0.5-0.4,0.6-0.8c0.1-0.3,0.2-0.8,0.2-1.3c0-0.7-0.1-1.3-0.4-1.6c-0.2-0.4-0.7-0.6-1.3-0.6h-1.1
			V268z"/>
		<path class="st0" d="M60,277.5V261h3.4v6.7L66,261h3.3l-2.9,7.4l3,9H66l-2.2-7.3l-0.4,0.7v6.6H60z"/>
		<path class="st0" d="M74.5,277.5V261h7v2.5H78v4.1h2.7v2.5H78v4.9h3.6v2.5H74.5z"/>
		<path class="st0" d="M88.1,277.5v-13.8h-2.3V261h8.1v2.7h-2.3v13.8H88.1z"/>
		<path class="st0" d="M99,277.5V261h3.4v16.5H99z"/>
		<path class="st0" d="M108.4,277.5V261h2.4l3.2,7.9V261h2.8v16.5h-2.3l-3.2-8.5v8.5H108.4z"/>
		<path class="st0" d="M126.8,277.7c-1.1,0-1.9-0.2-2.5-0.7s-1.1-1.1-1.3-2c-0.3-0.9-0.4-1.9-0.4-3v-5.5c0-1.2,0.1-2.2,0.4-3
			c0.3-0.9,0.8-1.5,1.4-2c0.7-0.5,1.6-0.7,2.8-0.7c1.1,0,2,0.2,2.7,0.6c0.7,0.4,1.1,1,1.4,1.7c0.3,0.7,0.4,1.6,0.4,2.5v1.1h-3.3
			v-1.3c0-0.4,0-0.7-0.1-1c0-0.3-0.1-0.5-0.3-0.7c-0.2-0.2-0.4-0.3-0.8-0.3c-0.4,0-0.6,0.1-0.8,0.3s-0.3,0.5-0.3,0.8
			c0,0.3-0.1,0.6-0.1,1v7.6c0,0.4,0,0.7,0.1,1c0.1,0.3,0.2,0.6,0.4,0.8c0.2,0.2,0.4,0.3,0.8,0.3c0.4,0,0.6-0.1,0.8-0.3
			c0.2-0.2,0.3-0.5,0.4-0.8c0.1-0.3,0.1-0.7,0.1-1v-1.9h-1.4V269h4.5v8.5h-2.3l-0.2-1.4c-0.2,0.5-0.5,0.8-0.9,1.1
			C128,277.6,127.5,277.7,126.8,277.7z"/>
		<path class="st0" d="M143.8,277.5v-6.7l-2.9-9.7h3.2l1.5,5.2l1.3-5.2h3.1l-2.9,9.7v6.7H143.8z"/>
		<path class="st0" d="M159.2,277.5V261h5.2c0.9,0,1.7,0.2,2.3,0.6c0.6,0.4,1,0.9,1.3,1.6c0.3,0.7,0.4,1.6,0.4,2.6
			c0,1.3-0.2,2.2-0.6,2.9c-0.4,0.7-0.9,1.1-1.6,1.4c-0.7,0.3-1.4,0.4-2.3,0.4h-1.4v7H159.2z M162.6,268h1.1c0.4,0,0.7-0.1,1-0.2
			c0.2-0.2,0.4-0.4,0.4-0.7c0.1-0.3,0.1-0.7,0.1-1.2c0-0.4,0-0.8-0.1-1.1c-0.1-0.3-0.2-0.6-0.4-0.8c-0.2-0.2-0.6-0.3-1-0.3h-1.1V268
			z"/>
		<path class="st0" d="M178.3,277.7c-1.2,0-2.1-0.2-2.8-0.6c-0.7-0.4-1.1-1-1.4-1.8s-0.4-1.8-0.4-2.9V261h3.4v11.9
			c0,0.3,0,0.7,0.1,1s0.2,0.6,0.3,0.8c0.2,0.2,0.4,0.3,0.8,0.3c0.4,0,0.6-0.1,0.8-0.3c0.2-0.2,0.3-0.5,0.3-0.8s0.1-0.7,0.1-1V261
			h3.4v11.4c0,1.2-0.1,2.1-0.4,2.9s-0.7,1.4-1.4,1.8C180.4,277.5,179.5,277.7,178.3,277.7z"/>
		<path class="st0" d="M188.7,277.5V261h4c0.7,0,1.3,0.1,1.9,0.2s1.1,0.3,1.6,0.6c0.5,0.3,0.8,0.7,1.1,1.3c0.3,0.6,0.4,1.3,0.4,2.2
			c0,0.7-0.1,1.2-0.3,1.7c-0.2,0.5-0.4,0.8-0.8,1.1c-0.3,0.3-0.7,0.5-1.2,0.5c0.6,0.1,1.1,0.3,1.5,0.6c0.4,0.3,0.7,0.8,0.9,1.3
			c0.2,0.6,0.3,1.2,0.3,2c0,0.9-0.1,1.6-0.3,2.2c-0.2,0.6-0.5,1.1-0.9,1.5c-0.4,0.4-0.9,0.7-1.5,0.9c-0.6,0.2-1.2,0.3-2,0.3H188.7z
			 M192.2,267.6h0.7c0.5,0,0.9-0.1,1.2-0.3s0.4-0.4,0.5-0.7c0.1-0.3,0.1-0.7,0.1-1.2c0-0.4-0.1-0.8-0.2-1.1
			c-0.1-0.3-0.4-0.5-0.7-0.7c-0.3-0.1-0.6-0.2-1.1-0.2h-0.6V267.6z M192.2,275h0.7c0.8,0,1.3-0.2,1.6-0.6c0.3-0.4,0.4-1,0.4-1.8
			c0-0.6-0.1-1.1-0.2-1.5c-0.1-0.4-0.3-0.6-0.6-0.8s-0.7-0.3-1.2-0.3h-0.7V275z"/>
		<path class="st0" d="M203.6,277.5V261h3.4v14h3.6v2.5H203.6z"/>
		<path class="st0" d="M215.8,277.5V261h3.4v16.5H215.8z"/>
		<path class="st0" d="M229.7,277.7c-1.2,0-2.1-0.2-2.8-0.7s-1.2-1.1-1.4-1.9c-0.3-0.8-0.4-1.8-0.4-2.9v-5.9c0-1.1,0.1-2.1,0.4-2.9
			c0.3-0.8,0.8-1.5,1.4-1.9c0.7-0.4,1.6-0.7,2.8-0.7c1.1,0,2,0.2,2.7,0.6c0.6,0.4,1.1,1,1.4,1.7c0.3,0.7,0.4,1.5,0.4,2.5v1.4h-3.3
			v-1.6c0-0.3,0-0.6,0-0.9c0-0.3-0.1-0.5-0.3-0.7c-0.2-0.2-0.4-0.3-0.8-0.3c-0.4,0-0.6,0.1-0.8,0.3c-0.2,0.2-0.3,0.5-0.3,0.8
			c0,0.3-0.1,0.6-0.1,1v7.8c0,0.4,0,0.7,0.1,1c0.1,0.3,0.2,0.5,0.3,0.7c0.2,0.2,0.4,0.3,0.8,0.3c0.4,0,0.6-0.1,0.8-0.3
			c0.2-0.2,0.2-0.5,0.3-0.8s0.1-0.6,0.1-1v-1.7h3.3v1.4c0,0.9-0.1,1.8-0.4,2.5c-0.3,0.7-0.7,1.3-1.4,1.8
			C231.7,277.5,230.8,277.7,229.7,277.7z"/>
		<path class="st0" d="M239.7,277.5V261h3.4v16.5H239.7z"/>
		<path class="st0" d="M249.1,277.5V261h3.9c1.4,0,2.4,0.2,3.2,0.5c0.8,0.4,1.3,0.9,1.6,1.7c0.3,0.8,0.5,1.8,0.5,3v6
			c0,1.2-0.2,2.2-0.5,3c-0.3,0.8-0.8,1.4-1.6,1.7c-0.7,0.4-1.8,0.5-3.1,0.5H249.1z M252.5,275h0.5c0.5,0,0.9-0.1,1.1-0.2
			s0.4-0.4,0.4-0.7c0.1-0.3,0.1-0.7,0.1-1.2v-7.2c0-0.5,0-0.9-0.1-1.2c-0.1-0.3-0.2-0.5-0.4-0.7s-0.6-0.2-1.1-0.2h-0.5V275z"/>
		<path class="st0" d="M263.2,277.5l2.9-16.5h3.9l2.9,16.5h-3.2l-0.5-3.5H267l-0.5,3.5H263.2z M267.3,271.8h1.6l-0.8-6.4
			L267.3,271.8z"/>
		<path class="st0" d="M278.2,277.5V261h3.9c1.4,0,2.4,0.2,3.2,0.5c0.8,0.4,1.3,0.9,1.6,1.7c0.3,0.8,0.5,1.8,0.5,3v6
			c0,1.2-0.2,2.2-0.5,3c-0.3,0.8-0.8,1.4-1.6,1.7c-0.7,0.4-1.8,0.5-3.1,0.5H278.2z M281.6,275h0.5c0.5,0,0.9-0.1,1.1-0.2
			s0.4-0.4,0.4-0.7c0.1-0.3,0.1-0.7,0.1-1.2v-7.2c0-0.5,0-0.9-0.1-1.2c-0.1-0.3-0.2-0.5-0.4-0.7s-0.6-0.2-1.1-0.2h-0.5V275z"/>
	</g>
</g>
</svg>
